
<svg
  version="1.0"
  xmlns="http://www.w3.org/2000/svg"
  xmlns:xlink="http://www.w3.org/1999/xlink"
  width="2400"
  height="1800"
>
  
  <rect
    x="0"
    y="0"
    width="100%"
    height="100%"
    fill="#ffffff"
    fill-opacity="0"
  ></rect>
  <svg
    version="1.0"
    xmlns="http://www.w3.org/2000/svg"
    xmlns:xlink="http://www.w3.org/1999/xlink"
    x="0"
    y="0"
    width="2400"
    height="1800"
    viewBox="0 0 340.000000 250.000000"
    preserveAspectRatio="xMidYMid meet"
    color-interpolation-filters="sRGB"
  >
    <defs><linearGradient id="92" x1="0%" y1="0%" x2="100%" y2="0%"><stop offset="0%" stop-color="#fa71cd"/> <stop offset="100%" stop-color="#9b59b6"/></linearGradient><linearGradient id="93" x1="0%" y1="0%" x2="100%" y2="0%"><stop offset="0%" stop-color="#f9d423"/> <stop offset="100%" stop-color="#f83600"/></linearGradient><linearGradient id="94" x1="0%" y1="0%" x2="100%" y2="0%"><stop offset="0%" stop-color="#0064d2"/> <stop offset="100%" stop-color="#1cb0f6"/></linearGradient><linearGradient id="95" x1="0%" y1="0%" x2="100%" y2="0%"><stop offset="0%" stop-color="#f00978"/> <stop offset="100%" stop-color="#3f51b1"/></linearGradient><linearGradient id="96" x1="0%" y1="0%" x2="100%" y2="0%"><stop offset="0%" stop-color="#7873f5"/> <stop offset="100%" stop-color="#ec77ab"/></linearGradient><linearGradient id="97" x1="0%" y1="0%" x2="100%" y2="0%"><stop offset="0%" stop-color="#f9d423"/> <stop offset="100%" stop-color="#e14fad"/></linearGradient><linearGradient id="98" x1="0%" y1="0%" x2="100%" y2="0%"><stop offset="0%" stop-color="#009efd"/> <stop offset="100%" stop-color="#2af598"/></linearGradient><linearGradient id="99" x1="0%" y1="0%" x2="100%" y2="0%"><stop offset="0%" stop-color="#ffcc00"/> <stop offset="100%" stop-color="#00b140"/></linearGradient><linearGradient id="100" x1="0%" y1="0%" x2="100%" y2="0%"><stop offset="0%" stop-color="#d51007"/> <stop offset="100%" stop-color="#ff8177"/></linearGradient><linearGradient id="102" x1="0%" y1="0%" x2="100%" y2="0%"><stop offset="0%" stop-color="#a2b6df"/> <stop offset="100%" stop-color="#0c3483"/></linearGradient><linearGradient id="103" x1="0%" y1="0%" x2="100%" y2="0%"><stop offset="0%" stop-color="#7ac5d8"/> <stop offset="100%" stop-color="#eea2a2"/></linearGradient><linearGradient id="104" x1="0%" y1="0%" x2="100%" y2="0%"><stop offset="0%" stop-color="#00ecbc"/> <stop offset="100%" stop-color="#007adf"/></linearGradient><linearGradient id="105" x1="0%" y1="0%" x2="100%" y2="0%"><stop offset="0%" stop-color="#b88746"/> <stop offset="100%" stop-color="#fdf5a6"/></linearGradient></defs> <g fill="#251f39" class="icon-text-wrapper icon-svg-group iconsvg" transform="translate(42.32499694824219,106.53983306884766)"><g class="iconsvg-imagesvg" transform="translate(0,0)"><g><rect fill="#251f39" fill-opacity="0" stroke-width="2" x="0" y="0" width="69.60000000000001" height="36.92033482924346" class="image-rect"/> <svg filter="url(#colors4971266717)" x="0" y="0" width="69.60000000000001" height="36.92033482924346" filtersec="colorsf3940366335" class="image-svg-svg primary" style="overflow: visible;"><svg xmlns="http://www.w3.org/2000/svg" xmlns:xlink="http://www.w3.org/1999/xlink" xml:space="preserve" viewBox="0.0000286102294921875 0 23.494760513305664 12.463157653808594" x="0px" y="0px" fill-rule="evenodd" clip-rule="evenodd"><defs/><g><path d="M9.69546 8.91946c2.52819,-1.96959 4.07318,0.447598 8.64016,-0.980196 -3.75868,1.96369 -5.77148,-0.694797 -8.64016,0.980196z"/><path d="M8.58806 9.96796c2.89519,-2.80599 4.67638,-0.00979996 9.21606,-1.52219 -0.640497,0.349899 -1.25169,0.565898 -1.83859,0.693697 -4.49838,2.92559 -8.35656,0.126099 -15.9655,3.32369 5.82908,-3.24699 11.2265,-1.49839 14.6626,-3.16479 -2.23939,0.0814997 -4.14868,-0.707997 -6.07457,0.669597z"/><path d="M15.7929 9.44476c1.39039,-0.0207999 5.26958,-1.65259 7.47877,-1.0476 -2.03609,-1.0255 -5.14048,0.589097 -7.47877,1.0476z"/><path d="M20.9325 7.36067c0.521298,0.259099 0.937196,0.286499 1.28399,0.297699 -0.138199,-0.130599 -0.263899,-0.335499 -0.217099,-0.839296 0.0409998,0.374198 0.234699,0.614597 0.469898,0.848196 0.0757997,0.00399998 0.148199,0.0103 0.217599,0.0218999 -0.0463998,-0.1129 -0.0681997,-0.283199 -0.0422998,-0.561798 0.0282999,0.258499 0.129599,0.453198 0.266999,0.625797 0.215599,0.0934996 0.403298,0.288399 0.583198,0.704797 -0.910296,-0.980596 -1.63679,-0.168599 -2.56229,-1.0973z"/><path d="M14.4333 0c-0.501598,4.56278 5.00688,4.95158 6.39067,7.54367 -0.166299,-2.58089 -5.58838,-3.65138 -6.39067,-7.54367z"/><path d="M14.6418 2.52549c0.284599,3.40849 3.87998,3.04059 5.26208,4.73878 -0.489998,-1.86379 -4.11968,-2.00679 -5.26208,-4.73878z"/><path d="M14.7386 3.66988c0.353998,2.88339 3.56168,2.47309 4.68438,3.85418 -0.448798,-1.56169 -3.70308,-1.58389 -4.68438,-3.85418z"/><path d="M14.8769 4.91228c0.364698,1.97209 3.07039,1.78659 3.90188,2.69119 -0.374698,-1.0573 -3.13059,-1.1679 -3.90188,-2.69119z"/><path d="M18.1684 7.62177c-0.884896,-0.0292999 -1.84229,-0.289999 -1.78149,-0.864196 0.0859996,-0.0933996 1.49059,0.456398 1.78149,0.864196z"/><path d="M12.6866 5.11248c0.303799,3.58298 3.37859,2.80579 5.43168,2.77039 -2.70559,-0.777197 -4.29258,0.164699 -5.43168,-2.77039z"/><path d="M11.9104 5.25388c-0.258799,3.60928 3.88758,2.88409 4.26828,2.98519 -1.68329,-0.528698 -3.63048,0.0978996 -4.26828,-2.98519z"/></g></svg></svg> <defs><filter id="colors4971266717"><feColorMatrix type="matrix" values="0 0 0 0 0.90625  0 0 0 0 0.2421875  0 0 0 0 0.1796875  0 0 0 1 0" class="icon-feColorMatrix "/></filter> <filter id="colorsf3940366335"><feColorMatrix type="matrix" values="0 0 0 0 0.99609375  0 0 0 0 0.99609375  0 0 0 0 0.99609375  0 0 0 1 0" class="icon-fecolormatrix"/></filter> <filter id="colorsb3679696645"><feColorMatrix type="matrix" values="0 0 0 0 0  0 0 0 0 0  0 0 0 0 0  0 0 0 1 0" class="icon-fecolormatrix"/></filter></defs></g></g> <g transform="translate(76.5999984741211,4.507430076599121)"><g fill-rule="" class="tp-name iconsvg-namesvg" transform="translate(0,0)"><g transform="scale(1)"><g><path d="M1.44 0L4.3 0 4.3-14.83 1.44-14.83ZM14.15 0.21C18.36 0.21 20.65-2.27 21.14-5.34L18.24-5.34C17.75-3.49 16.24-2.29 14.06-2.29 11.16-2.29 9.32-4.85 9.32-7.62 9.32-10.55 11.37-12.52 14.02-12.52 16.54-12.52 17.85-11.1 18.28-9.34L21.14-9.34C20.71-12.98 17.85-15.04 13.83-15.04 9.32-15.04 6.52-11.63 6.52-7.41 6.52-3.22 9.09 0.21 14.15 0.21ZM23.17 0L34.14 0 34.14-2.8 26.05-2.8 26.05-6.27 33.46-6.27 33.46-8.9 26.05-8.9 26.05-12.05 34.14-12.05 34.14-14.83 23.17-14.83ZM42.27 0L53.05 0 53.05-2.8 45.15-2.8 45.15-14.83 42.27-14.83ZM62.46-14.83L58.84-14.83 53.52 0 56.61 0 60.55-11.75 60.76-11.75 64.98 0 68.28 0ZM69.83 0L75.93 0C80.48 0 81.75-1.78 81.75-4.13 81.75-6.29 79.74-7.5 77.32-7.6L77.32-7.71C79.17-7.92 80.44-9.04 80.44-11.03 80.44-13.11 79.48-14.83 75.35-14.83L69.83-14.83 69.83-12.43 75.04-12.43C76.92-12.43 77.73-12.01 77.73-10.72 77.73-9.19 76.54-8.87 74.93-8.87L69.83-8.87 69.83-6.29 75.21-6.29C77.3-6.29 78.72-5.76 78.72-4.28 78.72-2.8 77.64-2.41 75.25-2.41L69.83-2.41ZM90.52-15.04L90.52-12.33C93.31-12.33 95.43-10.72 95.43-7.41 95.43-4.11 93.31-2.48 90.52-2.48 87.81-2.48 85.71-4.11 85.71-7.41 85.71-7.41 82.83-7.41 82.83-7.41 82.83-2.52 86.24 0.21 90.52 0.21 94.9 0.21 98.29-2.31 98.29-7.41 98.29-12.28 94.9-15.04 90.52-15.04ZM100.52 0L103.37 0 103.37-5.23 106.7-5.23 109.47 0 112.69 0 109.24-5.72C111.04-6.61 111.85-8.56 111.85-10.14 111.85-13.13 109.98-14.83 106.64-14.83L100.52-14.83 100.52-12.33 106.32-12.33C108.22-12.33 109.16-11.54 109.16-10.08 109.16-8.51 108.06-7.6 106.34-7.6L100.52-7.6ZM121.86-14.83L118.24-14.83 112.93 0 116.02 0 119.96-11.75 120.17-11.75 124.38 0 127.69 0ZM144.69-14.83L126.46-14.83 126.46-12.05 144.69-12.05C147.49-12.05 149.61-10.72 149.61-7.41 149.61-4.11 147.49-2.48 144.69-2.48 141.37-2.48 139.89-4.66 139.89-7.73L139.89-8.58C139.89-8.58 137.01-8.58 137.01-8.58L137.01-7.79C137.01-3.01 139.76 0.21 144.69 0.21 149.08 0.21 152.47-2.31 152.47-7.41 152.47-12.28 149.08-14.83 144.69-14.83ZM130.93-10.17L130.93 0 133.79 0 133.79-10.17ZM154.69 0L157.55 0 157.55-5.23 160.88-5.23 163.65 0 166.87 0 163.42-5.72C165.22-6.61 166.02-8.56 166.02-10.14 166.02-13.13 164.16-14.83 160.81-14.83L154.69-14.83 154.69-12.33 160.49-12.33C162.4-12.33 163.33-11.54 163.33-10.08 163.33-8.51 162.23-7.6 160.52-7.6L154.69-7.6ZM175-6.54L170.36-14.83 167.08-14.83 172.14-5.93 172.14 0 175 0ZM175.95-7.98L180.19-14.83 176.95-14.83 174.43-10.48Z" transform="translate(-1.440000057220459, 15.039999961853027)"/></g> </g></g> <g fill-rule="" class="tp-slogan iconsvg-slogansvg" fill="#251f39" transform="translate(0.09999847412109375,21.25)"> <g transform="scale(1, 1)"><g transform="scale(1)"><path d="M1.83-6.46L1.83 0L1.01 0L1.01-6.46L1.83-6.46ZM4.66 0L3.86 0L3.86-6.46L4.72-6.46Q5.59-5.23 6.31-3.98Q7.04-2.73 7.68-1.37L7.68-1.37L7.58-3.84L7.58-6.46L8.39-6.46L8.39 0L7.52 0Q6.86-1.39 6.15-2.70Q5.44-4.02 4.61-5.27L4.61-5.27L4.66-2.64L4.66 0ZM11.41-5.68L9.53-5.68L9.53-6.46L14.12-6.46L14.12-5.68L12.24-5.68L12.24 0L11.41 0L11.41-5.68ZM16.08-0.77L18.86-0.77L18.86 0L15.25 0L15.25-6.46L18.76-6.46L18.76-5.68L16.08-5.68L16.08-3.66L18.48-3.66L18.48-2.88L16.08-2.88L16.08-0.77ZM21.12-0.77L23.83-0.77L23.83 0L20.29 0L20.29-6.46L21.12-6.46L21.12-0.77ZM25.93-0.77L28.64-0.77L28.64 0L25.10 0L25.10-6.46L25.93-6.46L25.93-0.77ZM30.73-6.46L30.73 0L29.91 0L29.91-6.46L30.73-6.46ZM36.84-3.38L36.84-0.45Q36.57-0.27 36.06-0.09Q35.55 0.10 34.84 0.10L34.84 0.10Q34.07 0.10 33.54-0.23Q33.01-0.56 32.74-1.15Q32.47-1.75 32.47-2.53L32.47-2.53L32.47-3.94Q32.47-5.16 33.09-5.86Q33.70-6.56 34.87-6.56L34.87-6.56Q35.30-6.56 35.77-6.46Q36.24-6.37 36.70-6.15L36.70-6.15L36.44-5.43Q35.58-5.79 34.88-5.79L34.88-5.79Q34.10-5.79 33.71-5.32Q33.33-4.85 33.33-3.94L33.33-3.94L33.33-2.53Q33.33-1.67 33.72-1.17Q34.11-0.67 34.90-0.67L34.90-0.67Q35.20-0.67 35.52-0.73Q35.84-0.80 36.08-0.91L36.08-0.91L36.08-2.65L34.88-2.65L34.88-3.38L36.84-3.38ZM39.32-0.77L42.11-0.77L42.11 0L38.50 0L38.50-6.46L42.01-6.46L42.01-5.68L39.32-5.68L39.32-3.66L41.73-3.66L41.73-2.88L39.32-2.88L39.32-0.77ZM44.35 0L43.54 0L43.54-6.46L44.41-6.46Q45.27-5.23 46.00-3.98Q46.72-2.73 47.36-1.37L47.36-1.37L47.27-3.84L47.27-6.46L48.07-6.46L48.07 0L47.21 0Q46.54-1.39 45.84-2.70Q45.13-4.02 44.29-5.27L44.29-5.27L44.35-2.64L44.35 0ZM51.09-5.68L49.21-5.68L49.21-6.46L53.80-6.46L53.80-5.68L51.92-5.68L51.92 0L51.09 0L51.09-5.68ZM61.28 0L60.42 0L59.94-1.50L57.49-1.50L57.00 0L56.20 0L58.34-6.46L59.12-6.46L61.28 0ZM58.71-5.36L58.09-3.36L57.73-2.25L59.69-2.25L59.33-3.36L58.71-5.36ZM63.29 0L62.49 0L62.49-6.46L63.35-6.46Q64.22-5.23 64.94-3.98Q65.67-2.73 66.31-1.37L66.31-1.37L66.21-3.84L66.21-6.46L67.02-6.46L67.02 0L66.15 0Q65.49-1.39 64.78-2.70Q64.07-4.02 63.24-5.27L63.24-5.27L63.29-2.64L63.29 0ZM71.05 0L69.04 0L69.04-6.46L71.05-6.46Q72.16-6.46 72.76-5.79Q73.35-5.12 73.35-3.94L73.35-3.94L73.35-2.53Q73.35-1.34 72.76-0.67Q72.16 0 71.05 0L71.05 0ZM71.03-5.68L71.03-5.68L69.87-5.68L69.87-0.77L71.03-0.77Q72.50-0.77 72.50-2.53L72.50-2.53L72.50-3.94Q72.50-5.68 71.03-5.68ZM77.73-3.94L77.73-2.52Q77.73-1.62 78.08-1.14Q78.44-0.67 79.18-0.67L79.18-0.67Q79.50-0.67 79.82-0.74Q80.13-0.82 80.57-1.01L80.57-1.01L80.84-0.30Q80.38-0.10 79.96 0Q79.54 0.10 79.15 0.10L79.15 0.10Q78.03 0.10 77.45-0.61Q76.87-1.31 76.87-2.52L76.87-2.52L76.87-3.94Q76.87-5.15 77.45-5.85Q78.03-6.56 79.15-6.56L79.15-6.56Q79.54-6.56 79.96-6.46Q80.39-6.37 80.82-6.16L80.82-6.16L80.56-5.44Q79.79-5.79 79.18-5.79L79.18-5.79Q78.44-5.79 78.08-5.31Q77.73-4.84 77.73-3.94L77.73-3.94ZM86.48-3.94L86.48-3.94L86.48-2.53Q86.48-1.32 85.88-0.61Q85.28 0.10 84.15 0.10L84.15 0.10Q83.02 0.10 82.41-0.61Q81.81-1.32 81.81-2.53L81.81-2.53L81.81-3.94Q81.81-5.14 82.41-5.85Q83.02-6.56 84.15-6.56L84.15-6.56Q85.28-6.56 85.88-5.85Q86.48-5.14 86.48-3.94ZM85.63-2.53L85.63-3.94Q85.63-4.83 85.25-5.31Q84.88-5.79 84.15-5.79L84.15-5.79Q83.43-5.79 83.05-5.31Q82.67-4.83 82.67-3.94L82.67-3.94L82.67-2.53Q82.67-1.63 83.05-1.15Q83.43-0.67 84.15-0.67L84.15-0.67Q84.88-0.67 85.25-1.15Q85.63-1.63 85.63-2.53L85.63-2.53ZM92.32-3.38L92.32-0.45Q92.04-0.27 91.53-0.09Q91.03 0.10 90.31 0.10L90.31 0.10Q89.54 0.10 89.02-0.23Q88.49-0.56 88.22-1.15Q87.95-1.75 87.95-2.53L87.95-2.53L87.95-3.94Q87.95-5.16 88.56-5.86Q89.17-6.56 90.34-6.56L90.34-6.56Q90.77-6.56 91.24-6.46Q91.71-6.37 92.18-6.15L92.18-6.15L91.91-5.43Q91.05-5.79 90.35-5.79L90.35-5.79Q89.57-5.79 89.19-5.32Q88.80-4.85 88.80-3.94L88.80-3.94L88.80-2.53Q88.80-1.67 89.19-1.17Q89.58-0.67 90.37-0.67L90.37-0.67Q90.67-0.67 90.99-0.73Q91.31-0.80 91.56-0.91L91.56-0.91L91.56-2.65L90.35-2.65L90.35-3.38L92.32-3.38ZM94.78 0L93.97 0L93.97-6.46L94.84-6.46Q95.70-5.23 96.43-3.98Q97.15-2.73 97.79-1.37L97.79-1.37L97.70-3.84L97.70-6.46L98.50-6.46L98.50 0L97.64 0Q96.97-1.39 96.27-2.70Q95.56-4.02 94.72-5.27L94.72-5.27L94.78-2.64L94.78 0ZM101.35-6.46L101.35 0L100.53 0L100.53-6.46L101.35-6.46ZM104.37-5.68L102.49-5.68L102.49-6.46L107.08-6.46L107.08-5.68L105.20-5.68L105.20 0L104.37 0L104.37-5.68ZM109.04-6.46L109.04 0L108.21 0L108.21-6.46L109.04-6.46ZM114.40-6.46L115.21-6.46L113.15 0L112.32 0L110.25-6.46L111.12-6.46L112.15-3.18L112.76-1.11L113.39-3.19L114.40-6.46ZM117.24-0.77L120.02-0.77L120.02 0L116.41 0L116.41-6.46L119.93-6.46L119.93-5.68L117.24-5.68L117.24-3.66L119.64-3.66L119.64-2.88L117.24-2.88L117.24-0.77ZM124.35-0.77L127.14-0.77L127.14 0L123.53 0L123.53-6.46L127.04-6.46L127.04-5.68L124.35-5.68L124.35-3.66L126.76-3.66L126.76-2.88L124.35-2.88L124.35-0.77ZM129.38 0L128.57 0L128.57-6.46L129.44-6.46Q130.30-5.23 131.03-3.98Q131.76-2.73 132.39-1.37L132.39-1.37L132.30-3.84L132.30-6.46L133.10-6.46L133.10 0L132.24 0Q131.58-1.39 130.87-2.70Q130.16-4.02 129.32-5.27L129.32-5.27L129.38-2.64L129.38 0ZM139.21-3.38L139.21-0.45Q138.94-0.27 138.43-0.09Q137.92 0.10 137.21 0.10L137.21 0.10Q136.44 0.10 135.91-0.23Q135.38-0.56 135.11-1.15Q134.84-1.75 134.84-2.53L134.84-2.53L134.84-3.94Q134.84-5.16 135.46-5.86Q136.07-6.56 137.24-6.56L137.24-6.56Q137.66-6.56 138.14-6.46Q138.61-6.37 139.07-6.15L139.07-6.15L138.81-5.43Q137.95-5.79 137.25-5.79L137.25-5.79Q136.47-5.79 136.08-5.32Q135.70-4.85 135.70-3.94L135.70-3.94L135.70-2.53Q135.70-1.67 136.09-1.17Q136.48-0.67 137.27-0.67L137.27-0.67Q137.57-0.67 137.89-0.73Q138.21-0.80 138.45-0.91L138.45-0.91L138.45-2.65L137.25-2.65L137.25-3.38L139.21-3.38ZM141.69-6.46L141.69 0L140.87 0L140.87-6.46L141.69-6.46ZM144.52 0L143.72 0L143.72-6.46L144.58-6.46Q145.45-5.23 146.17-3.98Q146.90-2.73 147.54-1.37L147.54-1.37L147.44-3.84L147.44-6.46L148.25-6.46L148.25 0L147.38 0Q146.72-1.39 146.01-2.70Q145.30-4.02 144.47-5.27L144.47-5.27L144.52-2.64L144.52 0ZM151.10-0.77L153.88-0.77L153.88 0L150.27 0L150.27-6.46L153.79-6.46L153.79-5.68L151.10-5.68L151.10-3.66L153.50-3.66L153.50-2.88L151.10-2.88L151.10-0.77ZM156.14-0.77L158.93-0.77L158.93 0L155.32 0L155.32-6.46L158.83-6.46L158.83-5.68L156.14-5.68L156.14-3.66L158.55-3.66L158.55-2.88L156.14-2.88L156.14-0.77ZM162.48-2.53L161.19-2.53L161.19 0L160.36 0L160.36-6.46L162.39-6.46Q163.30-6.46 163.80-5.98Q164.30-5.50 164.30-4.70L164.30-4.70L164.30-4.29Q164.30-3.72 164.03-3.31Q163.77-2.89 163.29-2.69L163.29-2.69Q163.70-2.03 164.05-1.36Q164.40-0.68 164.69 0L164.69 0L163.74 0Q163.20-1.29 162.48-2.53L162.48-2.53ZM162.39-5.70L162.39-5.70L161.19-5.70L161.19-3.29L162.39-3.29Q162.87-3.29 163.16-3.56Q163.44-3.83 163.44-4.29L163.44-4.29L163.44-4.70Q163.44-5.18 163.16-5.44Q162.87-5.70 162.39-5.70ZM166.90-6.46L166.90 0L166.07 0L166.07-6.46L166.90-6.46ZM169.73 0L168.92 0L168.92-6.46L169.79-6.46Q170.65-5.23 171.38-3.98Q172.10-2.73 172.74-1.37L172.74-1.37L172.65-3.84L172.65-6.46L173.45-6.46L173.45 0L172.59 0Q171.92-1.39 171.22-2.70Q170.51-4.02 169.67-5.27L169.67-5.27L169.73-2.64L169.73 0ZM179.56-3.38L179.56-0.45Q179.29-0.27 178.78-0.09Q178.27 0.10 177.56 0.10L177.56 0.10Q176.79 0.10 176.26-0.23Q175.73-0.56 175.46-1.15Q175.19-1.75 175.19-2.53L175.19-2.53L175.19-3.94Q175.19-5.16 175.81-5.86Q176.42-6.56 177.59-6.56L177.59-6.56Q178.01-6.56 178.48-6.46Q178.95-6.37 179.42-6.15L179.42-6.15L179.15-5.43Q178.30-5.79 177.60-5.79L177.60-5.79Q176.82-5.79 176.43-5.32Q176.05-4.85 176.05-3.94L176.05-3.94L176.05-2.53Q176.05-1.67 176.44-1.17Q176.83-0.67 177.62-0.67L177.62-0.67Q177.92-0.67 178.24-0.73Q178.56-0.80 178.80-0.91L178.80-0.91L178.80-2.65L177.60-2.65L177.60-3.38L179.56-3.38Z" transform="translate(-1.0070727330307183, 6.555473450860337)"/></g></g></g></g></g><defs v-gra="od"/>
  </svg>
</svg>


